<svg width="25" height="24" viewBox="0 0 25 24" fill="none" xmlns="http://www.w3.org/2000/svg">
<mask id="mask0_936_7757" style="mask-type:alpha" maskUnits="userSpaceOnUse" x="0" y="0" width="25" height="24">
<rect x="0.333984" width="24" height="24" fill="#3B3BFC"/>
</mask>
<g mask="url(#mask0_936_7757)">
<path d="M12.334 23C10.4673 23 8.75065 22.575 7.18398 21.725C5.61732 20.875 4.33398 19.7417 3.33398 18.325V21H1.33398V15H7.33398V17H4.85898C5.65898 18.2 6.71315 19.1667 8.02148 19.9C9.32982 20.6333 10.7673 21 12.334 21C13.584 21 14.7548 20.7625 15.8465 20.2875C16.9382 19.8125 17.8882 19.1708 18.6965 18.3625C19.5048 17.5542 20.1465 16.6042 20.6215 15.5125C21.0965 14.4208 21.334 13.25 21.334 12H23.334C23.334 13.5167 23.0465 14.9417 22.4715 16.275C21.8965 17.6083 21.109 18.775 20.109 19.775C19.109 20.775 17.9423 21.5625 16.609 22.1375C15.2757 22.7125 13.8507 23 12.334 23ZM11.434 19V17.7C10.6507 17.5167 10.0132 17.1792 9.52148 16.6875C9.02982 16.1958 8.66732 15.55 8.43398 14.75L10.084 14.1C10.284 14.7833 10.5965 15.2958 11.0215 15.6375C11.4465 15.9792 11.934 16.15 12.484 16.15C13.034 16.15 13.5048 16.0208 13.8965 15.7625C14.2882 15.5042 14.484 15.1 14.484 14.55C14.484 14.0667 14.2798 13.675 13.8715 13.375C13.4632 13.075 12.734 12.7333 11.684 12.35C10.7007 12 9.97982 11.5833 9.52148 11.1C9.06315 10.6167 8.83398 9.98333 8.83398 9.2C8.83398 8.51667 9.07149 7.89583 9.54648 7.3375C10.0215 6.77917 10.6673 6.41667 11.484 6.25V5H13.234V6.25C13.834 6.3 14.3798 6.54167 14.8715 6.975C15.3632 7.40833 15.7007 7.91667 15.884 8.5L14.284 9.15C14.1507 8.76667 13.934 8.44583 13.634 8.1875C13.334 7.92917 12.9173 7.8 12.384 7.8C11.8007 7.8 11.3548 7.925 11.0465 8.175C10.7382 8.425 10.584 8.76667 10.584 9.2C10.584 9.63333 10.7757 9.975 11.159 10.225C11.5423 10.475 12.234 10.7667 13.234 11.1C14.434 11.5333 15.234 12.0417 15.634 12.625C16.034 13.2083 16.234 13.85 16.234 14.55C16.234 15.0333 16.1507 15.4583 15.984 15.825C15.8173 16.1917 15.5965 16.5042 15.3215 16.7625C15.0465 17.0208 14.7257 17.2292 14.359 17.3875C13.9923 17.5458 13.6007 17.6667 13.184 17.75V19H11.434ZM1.33398 12C1.33398 10.4833 1.62148 9.05833 2.19648 7.725C2.77148 6.39167 3.55898 5.225 4.55898 4.225C5.55898 3.225 6.72565 2.4375 8.05898 1.8625C9.39232 1.2875 10.8173 1 12.334 1C14.2007 1 15.9173 1.425 17.484 2.275C19.0507 3.125 20.334 4.25833 21.334 5.675V3H23.334V9H17.334V7H19.809C19.009 5.8 17.9548 4.83333 16.6465 4.1C15.3382 3.36667 13.9007 3 12.334 3C11.084 3 9.91315 3.2375 8.82148 3.7125C7.72982 4.1875 6.77982 4.82917 5.97148 5.6375C5.16315 6.44583 4.52148 7.39583 4.04648 8.4875C3.57148 9.57917 3.33398 10.75 3.33398 12H1.33398Z" fill="#3B3BFC"/>
</g>
</svg>
