<svg width="25" height="24" viewBox="0 0 25 24" fill="none" xmlns="http://www.w3.org/2000/svg">
<mask id="mask0_936_7751" style="mask-type:alpha" maskUnits="userSpaceOnUse" x="0" y="0" width="25" height="24">
<rect x="0.667969" width="24" height="24" fill="#D9D9D9"/>
</mask>
<g mask="url(#mask0_936_7751)">
<path d="M12.668 1L21.718 6.4C22.018 6.58333 22.2513 6.83333 22.418 7.15C22.5846 7.46667 22.668 7.8 22.668 8.15V19C22.668 19.55 22.4721 20.0208 22.0805 20.4125C21.6888 20.8042 21.218 21 20.668 21H4.66797C4.11797 21 3.64714 20.8042 3.25547 20.4125C2.8638 20.0208 2.66797 19.55 2.66797 19V8.15C2.66797 7.8 2.7513 7.46667 2.91797 7.15C3.08464 6.83333 3.31797 6.58333 3.61797 6.4L12.668 1ZM12.668 12.65L20.468 8L12.668 3.35L4.86797 8L12.668 12.65ZM12.668 15L4.66797 10.2V19H20.668V10.2L12.668 15Z" fill="#3B3BFC"/>
</g>
</svg>
