<svg width="32" height="32" viewBox="0 0 32 32" fill="none" xmlns="http://www.w3.org/2000/svg">
<circle cx="16" cy="16" r="16" fill="#FF8911"/>
<path d="M20.5167 11.2809C21.2154 10.684 21.5597 10.0913 21.7723 9.20886C21.9849 8.32641 21.9102 7.39967 21.5584 6.5567C21.2066 5.71373 20.5952 4.99616 19.8086 4.50315C19.0219 4.01014 18.099 3.76603 17.1672 3.80455C16.2355 3.84308 15.341 4.16233 14.6073 4.71821C13.8736 5.27408 13.3369 6.03912 13.0715 6.90761C12.8061 7.7761 12.825 8.70515 13.1256 9.56638C13.3381 10.2713 13.8756 11.3384 14.7572 12.0984L16.5731 11.0391C16.1424 10.7332 15.1305 9.46163 14.9592 8.97087C14.7879 8.48011 14.7771 7.9507 14.9283 7.4558C15.0796 6.9609 15.3854 6.52495 15.8035 6.2082C16.2216 5.89144 16.7313 5.70951 17.2623 5.68756C17.7932 5.66561 18.3191 5.80471 18.7674 6.08565C19.2156 6.36659 19.564 6.77548 19.7645 7.25584C19.965 7.73619 20.0075 8.26429 19.8864 8.76714C19.7652 9.26999 19.628 9.866 19.2298 10.2061L20.5167 11.2809Z" fill="white"/>
<path d="M16.027 10.5095L14.7559 12.0984L20.1309 17.2889L21.4383 15.7221L16.027 10.5095Z" fill="white"/>
<path d="M21.3657 15.6646L20.1309 17.2888C21.3293 18.3128 22.3367 20.2894 22.2673 21.8084L23.9079 19.9017C23.9998 19.2084 22.1222 16.2134 21.3657 15.6646Z" fill="white"/>
<path d="M13.5028 20.7191C12.8041 21.316 12.4599 21.9087 12.2472 22.7911C12.0346 23.6736 12.1093 24.6003 12.4611 25.4433C12.8129 26.2863 13.4243 27.0038 14.211 27.4969C14.9976 27.9899 15.9205 28.234 16.8523 28.1954C17.784 28.1569 18.6786 27.8377 19.4123 27.2818C20.146 26.7259 20.6826 25.9609 20.948 25.0924C21.2134 24.2239 21.1945 23.2949 20.8939 22.4336C20.6815 21.7287 20.1439 20.6616 19.2623 19.9016L17.4464 20.9609C17.8772 21.2668 18.8891 22.5384 19.0604 23.0291C19.2317 23.5199 19.2424 24.0493 19.0912 24.5442C18.9399 25.0391 18.6341 25.475 18.216 25.7918C17.798 26.1086 17.2882 26.2905 16.7573 26.3124C16.2263 26.3344 15.7004 26.1953 15.2522 25.9144C14.8039 25.6334 14.4555 25.2245 14.255 24.7442C14.0546 24.2638 14.012 23.7357 14.1332 23.2329C14.2543 22.73 14.3916 22.134 14.7897 21.7939L13.5028 20.7191Z" fill="white"/>
<path d="M17.9925 21.4905L19.2637 19.9016L13.8886 14.7111L12.5812 16.2779L17.9925 21.4905Z" fill="white"/>
<path d="M12.6175 16.3001L13.8887 14.7112C12.6902 13.6872 11.6828 11.7107 11.7522 10.1916L10.1116 12.0983C10.0197 12.7916 11.861 15.7513 12.6175 16.3001Z" fill="white"/>
<path d="M23.582 9.73279C23.7774 11.0901 23.0373 12.5222 22.2383 13.0871L23.5094 14.1464C24.4869 12.9804 24.9296 12.205 25.3253 10.7568L23.582 9.73279Z" fill="white"/>
<path d="M10.5449 21.7731C10.3495 20.4158 11.0897 18.9837 11.8887 18.4187L10.6175 17.3595C9.64003 18.5255 9.19731 19.3009 8.80165 20.7491L10.5449 21.7731Z" fill="white"/>
</svg>
