<svg width="33" height="32" viewBox="0 0 33 32" fill="none" xmlns="http://www.w3.org/2000/svg">
<circle cx="16.6562" cy="16" r="15.5" fill="white" stroke="#1B9BD2"/>
<g clip-path="url(#clip0_907_5169)">
<path d="M24.6719 11H9.78125C9.43594 11 9.15625 10.7203 9.15625 10.375C9.15625 10.0297 9.43594 9.75 9.78125 9.75H24.7812C25.1266 9.75 25.4062 9.47031 25.4062 9.125C25.4062 8.08945 24.5668 7.25 23.5312 7.25H9.15625C7.77539 7.25 6.65625 8.36914 6.65625 9.75V22.25C6.65625 23.6309 7.77539 24.75 9.15625 24.75H24.6719C25.7664 24.75 26.6562 23.909 26.6562 22.875V12.875C26.6562 11.841 25.7664 11 24.6719 11ZM22.9062 19.125C22.216 19.125 21.6562 18.5652 21.6562 17.875C21.6562 17.1848 22.216 16.625 22.9062 16.625C23.5965 16.625 24.1562 17.1848 24.1562 17.875C24.1562 18.5652 23.5965 19.125 22.9062 19.125Z" fill="#1B9BD2"/>
</g>
<defs>
<clipPath id="clip0_907_5169">
<rect width="20" height="20" fill="white" transform="translate(6.65625 6)"/>
</clipPath>
</defs>
</svg>
