<svg width="24" height="24" viewBox="0 0 24 24" fill="none" xmlns="http://www.w3.org/2000/svg">
<g clip-path="url(#clip0_874_6065)">
<path d="M16.2274 22.1546L17.7332 23.0605C18.1722 23.3246 18.7215 23.2306 19.0546 22.8648C19.0459 22.6779 18.9904 22.4908 18.8822 22.3231L17.7359 20.5471L15.957 21.7357L16.2276 22.1549L16.2274 22.1546Z" fill="#F1C666"/>
<path d="M17.7323 23.0605L16.2266 22.1547L17.1024 23.5115C17.1226 23.5428 17.144 23.5726 17.1667 23.601C17.1865 23.6258 17.2072 23.6495 17.2288 23.6721C17.423 23.8758 17.6846 23.9891 17.9532 23.9992C18.1322 24.006 18.3145 23.967 18.4819 23.8782C18.5138 23.8614 18.5452 23.8426 18.5758 23.8221C18.6031 23.8038 18.6287 23.7843 18.6539 23.764C18.6603 23.7587 18.6668 23.7535 18.6731 23.7482C18.6967 23.7281 18.7197 23.7076 18.7411 23.6859C18.7433 23.6837 18.7453 23.6814 18.7476 23.6792C18.7674 23.6589 18.7861 23.6376 18.8041 23.616C18.8106 23.6082 18.817 23.6003 18.8232 23.5924C18.8385 23.5728 18.8533 23.5528 18.867 23.5324C18.8741 23.5218 18.8809 23.5113 18.8876 23.5005C18.8985 23.4833 18.9088 23.4658 18.9187 23.448C18.9255 23.4355 18.9322 23.423 18.9385 23.4104C18.9454 23.3966 18.9519 23.3824 18.9582 23.3683C18.969 23.344 18.9791 23.3194 18.9881 23.2944C18.9916 23.2847 18.9953 23.2748 18.9986 23.2649C19.0045 23.2468 19.0102 23.2287 19.0153 23.2103C19.0166 23.2052 19.0178 23.2 19.0192 23.1949C19.0293 23.1559 19.0374 23.1166 19.0432 23.0768C19.0435 23.0745 19.0439 23.0722 19.0443 23.0697C19.0538 23.0022 19.0571 22.9336 19.0538 22.865V22.8647C18.7207 23.2306 18.1715 23.3245 17.7323 23.0604V23.0605Z" fill="#EBA55E"/>
<path d="M15.9576 21.7356L17.7365 20.547L17.585 20.3123C17.0152 20.7406 16.3994 21.1091 15.7461 21.408L15.9575 21.7356H15.9576Z" fill="#EBA55E"/>
<path d="M5.71041 20.3123L4.41259 22.3231C4.30438 22.4909 4.24895 22.6779 4.24023 22.8649C4.57334 23.2307 5.12249 23.3247 5.56154 23.0605L7.06732 22.1547L7.33792 21.7355L5.55901 20.5469L5.71054 20.3122L5.71041 20.3123Z" fill="#F1C666"/>
<path d="M4.23947 22.8648V22.8651C4.23631 22.9337 4.23947 23.0023 4.24894 23.0699C4.24931 23.0722 4.24969 23.0745 4.25007 23.0769C4.25588 23.1168 4.26396 23.1561 4.27406 23.195C4.27545 23.2001 4.27659 23.2053 4.27798 23.2104C4.28303 23.2288 4.28871 23.2469 4.29465 23.265C4.29793 23.2749 4.30159 23.2847 4.30513 23.2946C4.31422 23.3195 4.32419 23.3441 4.33505 23.3684C4.34137 23.3826 4.34781 23.3967 4.35475 23.4106C4.36106 23.4232 4.36776 23.4357 4.37457 23.4481C4.38442 23.4659 4.39478 23.4833 4.40564 23.5006C4.41233 23.5113 4.41915 23.5219 4.42622 23.5325C4.44011 23.5529 4.45476 23.5729 4.47004 23.5925C4.47622 23.6004 4.48266 23.6083 4.48923 23.6161C4.50729 23.6378 4.52597 23.659 4.5458 23.6793C4.54795 23.6815 4.54997 23.6838 4.55224 23.686C4.5737 23.7077 4.59669 23.7283 4.6203 23.7483C4.62661 23.7537 4.63293 23.759 4.63949 23.7641C4.66449 23.7843 4.69025 23.8039 4.71753 23.8222C4.74821 23.8427 4.77953 23.8614 4.81147 23.8783C4.97891 23.967 5.16112 24.006 5.34017 23.9993C5.54902 23.9915 5.75371 23.9212 5.92582 23.7946C5.97494 23.7583 6.0214 23.7176 6.06459 23.6723C6.08618 23.6496 6.10689 23.6259 6.12671 23.6011C6.14944 23.5727 6.17091 23.5429 6.19098 23.5117L7.0668 22.1548L5.56102 23.0606C5.12197 23.3247 4.57269 23.2307 4.23972 22.865L4.23947 22.8648Z" fill="#EBA55E"/>
<path d="M5.55872 20.547L7.33763 21.7356L7.54901 21.408C6.89568 21.1091 6.27985 20.7406 5.71012 20.3123L5.55859 20.547H5.55872Z" fill="#EBA55E"/>
<path d="M2.27915 0.403777C2.03772 0.154676 1.70235 0 1.33136 0C0.670964 0 0.124463 0.489466 0.0195312 1.13104C0.260962 1.3795 0.595833 1.53353 0.966312 1.53353C1.62633 1.53353 2.17384 1.04484 2.27915 0.403777ZM0.712255 0.40352C0.712255 0.210817 0.98942 0.0545992 1.33136 0.0545992C1.6733 0.0545992 1.95047 0.210817 1.95047 0.40352C1.95047 0.596223 1.6733 0.752441 1.33136 0.752441C0.98942 0.752441 0.712255 0.596223 0.712255 0.40352Z" fill="#ECA75F"/>
<path d="M2.5974 0.93625C2.59096 0.916081 2.58351 0.896425 2.57618 0.876769C2.5705 0.861481 2.56583 0.845551 2.55952 0.83052C2.54815 0.803157 2.53502 0.776949 2.52201 0.750484C2.51595 0.738023 2.51065 0.725048 2.50421 0.712843C2.48981 0.685736 2.47365 0.659914 2.45761 0.634092C2.45105 0.623429 2.44524 0.612252 2.4383 0.601846C2.42125 0.575896 2.40243 0.55123 2.38362 0.526692C2.37642 0.517314 2.36998 0.507293 2.36253 0.498044C2.34334 0.474148 2.32263 0.451795 2.30192 0.429313C2.29422 0.420962 2.28727 0.411841 2.27932 0.403748C2.27932 0.403748 2.27932 0.403876 2.27932 0.404005C2.17401 1.04506 1.6265 1.53376 0.966479 1.53376C0.596 1.53376 0.261129 1.3796 0.0196983 1.13127C0.0193195 1.13088 0.0189407 1.13062 0.0185619 1.13024C0.0160364 1.14591 0.0146474 1.1621 0.0126271 1.17803C0.0103542 1.19524 0.00782881 1.21233 0.00618728 1.2298C0.00239915 1.27104 0 1.31266 0 1.35493C0 1.63551 0.083844 1.89617 0.227414 2.11238C0.251406 2.14835 0.276913 2.18317 0.304061 2.2167C0.358357 2.28363 0.418841 2.34517 0.484502 2.40028C0.629209 2.52181 0.800306 2.61135 0.986935 2.6621C1.1819 2.279 1.43191 1.91904 1.74456 1.60095C2.00392 1.33707 2.29195 1.11739 2.5974 0.936379V0.93625Z" fill="#E4903B"/>
<path d="M8.1711 2.58068C8.11087 2.4395 8.02879 2.31321 7.92297 2.20556C7.10044 1.36871 5.18377 1.96185 3.642 3.53032C2.10023 5.09893 1.51737 7.04882 2.3399 7.88567C2.38801 7.93462 2.44003 7.97804 2.49534 8.01735C3.58266 5.51234 5.63393 3.53778 8.1711 2.58056V2.58068Z" fill="#E4903B"/>
<path d="M1.332 0.752468C1.67392 0.752468 1.95111 0.596251 1.95111 0.403547C1.95111 0.210844 1.67392 0.0546265 1.332 0.0546265C0.990074 0.0546265 0.712891 0.210844 0.712891 0.403547C0.712891 0.596251 0.990074 0.752468 1.332 0.752468Z" fill="#F1C666"/>
<path d="M6.36332 1.3547C6.18717 0.403521 3.59609 -0.242291 1.57537 2.19335C1.16941 2.68268 0.213285 4.9842 1.1213 4.713C2.02932 4.44168 3.27675 1.80139 6.36332 1.35483V1.3547Z" fill="#F7DBA2"/>
<path d="M22.3285 1.53353C22.6989 1.53353 23.0338 1.37937 23.2752 1.13104C23.1702 0.489594 22.6237 0 21.9634 0C21.5924 0 21.2571 0.154676 21.0156 0.403777C21.1209 1.04484 21.6686 1.53353 22.3285 1.53353ZM21.9634 0.0545992C22.3054 0.0545992 22.5825 0.210817 22.5825 0.40352C22.5825 0.596223 22.3054 0.752441 21.9634 0.752441C21.6215 0.752441 21.3443 0.596223 21.3443 0.40352C21.3443 0.210817 21.6215 0.0545992 21.9634 0.0545992Z" fill="#ECA75F"/>
<path d="M23.2947 1.35469C23.2947 1.31242 23.2923 1.2708 23.2885 1.22943C23.2868 1.21209 23.2843 1.195 23.282 1.17778C23.28 1.16185 23.2786 1.14567 23.2761 1.12999C23.2757 1.13038 23.2753 1.13064 23.275 1.13102C23.0335 1.37948 22.6987 1.53351 22.3282 1.53351C21.6682 1.53351 21.1207 1.04482 21.0153 0.40376C21.0153 0.40376 21.0153 0.403632 21.0153 0.403503C21.0074 0.411725 21.0004 0.420718 20.9927 0.429069C20.972 0.451551 20.9513 0.473904 20.9321 0.497799C20.9247 0.507049 20.9182 0.51707 20.911 0.526448C20.8922 0.551114 20.8735 0.575651 20.8564 0.601602C20.8495 0.612008 20.8437 0.623185 20.837 0.633848C20.821 0.659798 20.8048 0.685621 20.7905 0.712599C20.784 0.724804 20.7787 0.737779 20.7727 0.75024C20.7596 0.776705 20.7464 0.802912 20.7351 0.830276C20.7288 0.845307 20.7242 0.861237 20.7185 0.876525C20.7112 0.896181 20.7037 0.915836 20.6973 0.936006C21.0027 1.11689 21.2907 1.33657 21.5501 1.60057C21.8627 1.91866 22.1126 2.27863 22.3077 2.66173C22.4519 2.62241 22.587 2.56062 22.7076 2.47789C23.0618 2.23444 23.2947 1.82218 23.2947 1.35456V1.35469Z" fill="#E4903B"/>
<path d="M20.6969 0.936256C20.6969 0.936256 20.6969 0.936256 20.6968 0.936256C18.908 -0.12284 16.4993 0.187155 15.4501 1.25473C15.1247 1.58579 14.9179 2.0037 14.8211 2.4721C13.8238 2.13281 12.7567 1.94859 11.6473 1.94859C10.5379 1.94859 9.47065 2.13281 8.47348 2.4721C8.37663 2.0037 8.16993 1.58579 7.84453 1.25473C6.79509 0.187027 4.38634 -0.122968 2.59771 0.936128C2.59771 0.936128 2.59771 0.936128 2.59758 0.936128C2.29213 1.11701 2.00411 1.33669 1.74475 1.6007C1.4321 1.91878 1.18221 2.27875 0.987121 2.66185C0.0727919 4.45822 0.391879 6.77644 1.40445 7.8065C1.66835 8.075 1.98832 8.26437 2.34529 8.37909C1.89413 9.53813 1.64613 10.8014 1.64613 12.1237C1.64613 15.4815 3.2451 18.459 5.71029 20.3122C6.28003 20.7405 6.89585 21.1089 7.54918 21.4079C8.79989 21.9802 10.1871 22.2989 11.6474 22.2989C13.1078 22.2989 14.495 21.9803 15.7457 21.4079C16.399 21.1089 17.0147 20.7405 17.5846 20.3122C20.0498 18.459 21.6487 15.4815 21.6487 12.1237C21.6487 10.8014 21.4007 9.538 20.9496 8.37909C21.3065 8.26437 21.6265 8.075 21.8904 7.8065C22.903 6.77631 23.2221 4.45822 22.3077 2.66185C22.1128 2.27875 21.8628 1.91878 21.5501 1.6007C21.2908 1.33682 21.0027 1.11714 20.6973 0.936128L20.6969 0.936256ZM1.12097 4.71285C0.212953 4.98418 1.16895 2.68266 1.57504 2.19319C3.59576 -0.242316 6.18684 0.403497 6.36299 1.35468C3.27654 1.80136 2.02911 4.44165 1.12097 4.71285ZM2.33923 7.88577C1.5167 7.04892 2.0997 5.0989 3.64134 3.53042C5.18298 1.96182 7.09965 1.36881 7.92231 2.20565C8.02813 2.31331 8.1102 2.43947 8.17043 2.58078C5.63327 3.538 3.58199 5.51257 2.49467 8.01758C2.43949 7.97839 2.38734 7.93484 2.33923 7.8859V7.88577ZM21.1493 11.9604C21.1493 12.561 21.095 13.1486 20.992 13.7189C20.7473 13.825 20.4929 13.9268 20.2305 14.0243C19.3741 18.0462 15.8568 21.0596 11.6472 21.0596C7.43755 21.0596 3.9204 18.0464 3.0639 14.0243C2.80151 13.9266 2.54707 13.825 2.30236 13.7189C2.19932 13.1486 2.14503 12.561 2.14503 11.9604C2.14503 6.62125 6.39923 2.29289 11.6472 2.29289C16.8951 2.29289 21.1493 6.62112 21.1493 11.9604ZM20.9553 7.88577C20.9071 7.93472 20.8551 7.97814 20.7998 8.01745C19.7125 5.51244 17.6613 3.53788 15.1241 2.58066C15.1843 2.43947 15.2665 2.31318 15.3722 2.20553C16.1947 1.36868 18.1114 1.96182 19.653 3.5303C21.1948 5.0989 21.7777 7.0488 20.9551 7.88564L20.9553 7.88577ZM22.1735 4.71285C21.2655 4.44152 20.0181 1.80124 16.9315 1.35468C17.1076 0.403497 19.6987 -0.242316 21.7194 2.19332C22.1254 2.68266 23.0815 4.98418 22.1735 4.71298V4.71285Z" fill="#F1C666"/>
<path d="M15.3712 2.2057C15.2654 2.31335 15.1833 2.43951 15.123 2.58083C17.6603 3.53805 19.7115 5.51261 20.7988 8.01762C20.854 7.97844 20.9061 7.93489 20.9542 7.88594C21.7768 7.04909 21.1938 5.09907 19.6521 3.53059C18.1105 1.96199 16.1938 1.36898 15.3713 2.20583L15.3712 2.2057Z" fill="#E4903B"/>
<path d="M21.9629 0.752468C22.3048 0.752468 22.582 0.596251 22.582 0.403547C22.582 0.210844 22.3048 0.0546265 21.9629 0.0546265C21.6209 0.0546265 21.3438 0.210844 21.3438 0.403547C21.3438 0.596251 21.6209 0.752468 21.9629 0.752468Z" fill="#F1C666"/>
<path d="M16.9316 1.35472C20.0181 1.80141 21.2655 4.44169 22.1737 4.71289C23.0817 4.98422 22.1257 2.6827 21.7196 2.19324C19.6989 -0.242402 17.1078 0.403539 16.9316 1.35459V1.35472Z" fill="#F7DBA2"/>
<path d="M11.6467 2.29303C6.39886 2.29303 2.14453 6.62127 2.14453 11.9606C2.14453 12.5611 2.19883 13.1488 2.30187 13.719C2.5467 13.8251 2.80101 13.9269 3.06341 14.0244C2.93297 13.4119 2.86365 12.7761 2.86365 12.1238C2.86365 7.18871 6.79585 3.18794 11.6467 3.18794C16.4975 3.18794 20.4297 7.18871 20.4297 12.1238C20.4297 12.7761 20.3604 13.4119 20.23 14.0244C20.4924 13.9268 20.7468 13.8251 20.9915 13.719C21.0945 13.1488 21.1488 12.5611 21.1488 11.9606C21.1488 6.6214 16.8946 2.29303 11.6467 2.29303Z" fill="#F7DBA2"/>
<path d="M11.6463 3.18793C6.79562 3.18793 2.86328 7.1887 2.86328 12.1238C2.86328 12.7761 2.9326 13.4118 3.06304 14.0244C3.91941 18.0464 7.43669 21.0597 11.6463 21.0597C15.8559 21.0597 19.3731 18.0465 20.2296 14.0244C20.36 13.4118 20.4294 12.7761 20.4294 12.1238C20.4294 7.1887 16.497 3.18793 11.6463 3.18793ZM11.6463 20.8387C6.91557 20.8387 3.08047 16.9369 3.08047 12.1238C3.08047 7.31074 6.91557 3.40876 11.6463 3.40876C16.3771 3.40876 20.2122 7.31062 20.2122 12.1237C20.2122 16.9368 16.3771 20.8386 11.6463 20.8386V20.8387Z" fill="#EBA55E"/>
<path d="M11.6479 3.40881C6.91714 3.40881 3.08203 7.31066 3.08203 12.1237C3.08203 16.9368 6.91714 20.8387 11.6479 20.8387C16.3786 20.8387 20.2137 16.9368 20.2137 12.1237C20.2137 7.31066 16.3786 3.40881 11.6479 3.40881ZM11.6479 20.3446C7.18534 20.3446 3.56767 16.664 3.56767 12.1237C3.56767 7.58353 7.18534 3.9029 11.6479 3.9029C16.1104 3.9029 19.7281 7.58353 19.7281 12.1237C19.7281 16.664 16.1104 20.3446 11.6479 20.3446Z" fill="#E4903B"/>
<path d="M11.6466 3.90289C7.18407 3.90289 3.56641 7.58352 3.56641 12.1237C3.56641 16.6639 7.18407 20.3446 11.6466 20.3446C16.1092 20.3446 19.7268 16.6639 19.7268 12.1237C19.7268 7.58352 16.1092 3.90289 11.6466 3.90289ZM11.6466 19.9913C7.37588 19.9913 3.91365 16.4689 3.91365 12.1237C3.91365 7.77854 7.37588 4.25631 11.6466 4.25631C15.9174 4.25631 19.3795 7.77866 19.3795 12.1237C19.3795 16.4688 15.9174 19.9913 11.6466 19.9913Z" fill="#C9BFA8"/>
<path d="M11.647 4.25629C7.37629 4.25629 3.91406 7.77864 3.91406 12.1237C3.91406 16.4688 7.37616 19.9913 11.647 19.9913C15.9179 19.9913 19.3799 16.4689 19.3799 12.1237C19.3799 7.77851 15.9178 4.25629 11.647 4.25629ZM11.647 19.658C7.55724 19.658 4.24174 16.2848 4.24174 12.1238C4.24174 7.96286 7.55724 4.58953 11.647 4.58953C15.7368 4.58953 19.0523 7.96274 19.0523 12.1237C19.0523 16.2847 15.7368 19.6579 11.647 19.6579V19.658Z" fill="#DED2B9"/>
<path d="M11.6475 4.58954C7.55769 4.58954 4.24219 7.96274 4.24219 12.1237C4.24219 16.2847 7.55769 19.6579 11.6475 19.6579C15.7373 19.6579 19.0528 16.2847 19.0528 12.1237C19.0528 7.96274 15.7373 4.58954 11.6475 4.58954Z" fill="#EAE2D2"/>
<path d="M12.2942 11.7621C12.466 11.5949 12.5933 11.4477 12.7252 11.3239C12.4039 11.3504 12.0733 11.3653 11.7358 11.3675C11.7314 11.3833 11.7269 11.3996 11.7227 11.416C11.959 11.4432 12.1641 11.5737 12.2943 11.7621H12.2942Z" fill="#EAE2D2"/>
<path d="M16.8896 9.12115C16.8877 9.11781 16.8858 9.1146 16.8841 9.11126C16.055 9.67036 14.6516 10.6283 14.4819 10.8207C14.256 10.93 14.1752 10.8724 13.9286 10.9326C13.8527 11.0125 13.7562 11.1118 13.6543 11.2111C15.8111 10.8609 17.3731 9.96249 17.4846 8.89569L16.9415 9.21468L16.8896 9.12102V9.12115Z" fill="#F2EDE2"/>
<path d="M11.6029 8.47778C11.6029 8.47778 11.4713 8.95466 11.4854 9.10227C11.4996 9.24988 11.5674 9.23562 11.6029 9.47778C11.6384 9.23562 11.7062 9.24988 11.7203 9.10227C11.7344 8.95466 11.6029 8.47778 11.6029 8.47778Z" fill="#F2EDE2"/>
<path d="M15.2618 6.10123L14.8018 6.91174L14.7109 6.85688C14.6736 6.8344 14.6363 6.8123 14.5985 6.79072L14.5066 6.73792L14.9593 5.94026C14.0616 5.48895 12.9825 5.1787 11.8179 5.15082V6.00616L11.6862 6.00462C11.6603 6.00411 11.6343 6.00411 11.6084 6.00462L11.4767 6.00616V5.15082C10.3121 5.1787 9.233 5.48895 8.33534 5.94026L8.78802 6.73792L8.69609 6.79072C8.65834 6.8123 8.62096 6.8344 8.58371 6.85688L8.4928 6.91174L8.03279 6.10123C6.81668 6.78687 5.99086 7.72482 5.83201 8.50745L6.52461 8.91431L6.47069 9.0068C6.44859 9.0447 6.42688 9.08286 6.40554 9.12127L6.35364 9.2148L5.81055 8.89581C5.95172 10.2463 8.41767 11.3269 11.4722 11.367C11.411 11.1456 11.3536 10.9642 11.3354 10.7735C11.3132 10.5403 11.4496 10.0112 11.5362 9.70542C11.456 9.45477 11.3599 9.41225 11.3354 9.1548C11.4857 8.72006 11.6041 7.17446 11.6041 7.17446C11.6041 7.17446 11.757 8.79766 11.8728 9.1548C11.8482 9.41225 11.7522 9.45477 11.6719 9.70542C11.7587 10.0112 11.895 10.5405 11.8728 10.7735C11.8546 10.9644 11.7971 11.1461 11.7358 11.3678C12.0733 11.3656 12.4039 11.3507 12.7253 11.3241C12.7753 11.2771 12.826 11.2334 12.8802 11.1933C13.0638 11.0577 13.5689 10.9035 13.8644 10.821C14.0352 10.6288 14.0254 10.5285 14.228 10.3787C14.5293 10.3124 15.991 9.52774 16.8526 9.05639C16.8432 9.03995 16.834 9.02338 16.8244 9.00693L16.7704 8.91431L17.463 8.50745C17.3041 7.72482 16.4783 6.78687 15.2622 6.10123H15.2618Z" fill="#F2EDE2"/>
<path d="M14.9186 10.259C14.9186 10.259 14.4594 10.3908 14.3432 10.4766C14.2269 10.5626 14.2708 10.6112 14.0859 10.7622C14.3043 10.6694 14.3245 10.7325 14.454 10.6698C14.5836 10.6071 14.9186 10.2589 14.9186 10.2589V10.259Z" fill="#F2EDE2"/>
<path d="M11.6083 18.2431L11.4766 18.2415V19.4388L11.606 19.4403C11.6196 19.4405 11.6334 19.4408 11.6472 19.4408C11.6609 19.4408 11.6747 19.4405 11.6883 19.4403L11.8177 19.4388V18.2415L11.686 18.2431C11.6602 18.2436 11.6341 18.2436 11.6083 18.2431Z" fill="#725550"/>
<path d="M11.6083 6.00452C11.6341 6.00401 11.6602 6.00401 11.686 6.00452L11.8177 6.00607V4.80874L11.6886 4.80745C11.661 4.80694 11.6333 4.80694 11.6057 4.80745L11.4766 4.80874V6.00607L11.6083 6.00452Z" fill="#725550"/>
<path d="M8.58376 6.85677C8.62101 6.83429 8.65851 6.81219 8.69614 6.79061L8.78807 6.73781L8.33539 5.94015L8.19952 5.70068L8.10936 5.75271C8.07047 5.77507 8.03183 5.79806 7.99332 5.82119L7.9043 5.87476L8.03284 6.10125L8.49285 6.91176L8.58376 6.8569V6.85677Z" fill="#725550"/>
<path d="M14.7103 17.3908C14.673 17.4133 14.6355 17.4354 14.5978 17.4571L14.5059 17.5099L15.0944 18.547L15.1846 18.495C15.2235 18.4726 15.2621 18.4496 15.3006 18.4265L15.3896 18.3729L14.8011 17.3358L14.7102 17.3907L14.7103 17.3908Z" fill="#725550"/>
<path d="M6.40527 9.12112C6.42661 9.08271 6.44833 9.04456 6.47042 9.00666L6.52434 8.91416L5.83174 8.5073L5.50496 8.31537L5.4523 8.40594C5.42957 8.44512 5.4071 8.48443 5.385 8.52413L5.33398 8.61586L5.81028 8.89553L6.35337 9.21452L6.40527 9.121V9.12112Z" fill="#725550"/>
<path d="M16.8886 15.1264C16.8673 15.1648 16.8457 15.2029 16.8236 15.2408L16.7695 15.3334L17.7889 15.9322L17.8416 15.8416C17.8643 15.8024 17.8868 15.7631 17.9089 15.7235L17.96 15.6318L16.9406 15.033L16.8887 15.1265L16.8886 15.1264Z" fill="#725550"/>
<path d="M8.58376 17.3908L8.49285 17.3359L7.9043 18.3731L7.99332 18.4266C8.03183 18.4498 8.07047 18.4726 8.10936 18.4951L8.19952 18.5471L8.78807 17.51L8.69614 17.4572C8.65839 17.4355 8.62089 17.4134 8.58364 17.3909L8.58376 17.3908Z" fill="#725550"/>
<path d="M14.5978 6.79062C14.6355 6.81233 14.6729 6.83443 14.7102 6.85678L14.8011 6.91164L15.2611 6.10113L15.3896 5.87464L15.3006 5.82106C15.2621 5.79794 15.2235 5.77507 15.1846 5.75259L15.0944 5.70056L14.9585 5.94003L14.5059 6.73769L14.5978 6.79049V6.79062Z" fill="#725550"/>
<path d="M6.40527 15.1264L6.35337 15.0329L5.33398 15.6317L5.38512 15.7234C5.4071 15.763 5.42957 15.8023 5.4523 15.8415L5.50496 15.9322L6.52434 15.3334L6.47042 15.2409C6.44833 15.203 6.42661 15.1648 6.40527 15.1264Z" fill="#725550"/>
<path d="M16.8236 9.00683C16.833 9.02314 16.8423 9.03972 16.8517 9.05629C17.2283 8.85023 17.4904 8.70403 17.4904 8.70403C17.4904 8.70403 17.2399 8.87078 16.8832 9.1114C16.8851 9.11474 16.887 9.11795 16.8887 9.12129L16.9406 9.21495L17.4837 8.89596L17.96 8.61616L17.9089 8.52443C17.8869 8.48486 17.8643 8.44555 17.8416 8.40637L17.7889 8.3158L17.4621 8.50773L16.7695 8.91459L16.8236 9.00721V9.00683Z" fill="#725550"/>
<path d="M17.6617 12.0838C17.6619 12.0972 17.6621 12.1104 17.6621 12.1239C17.6621 12.1374 17.6618 12.1506 17.6617 12.164L17.6602 12.2976H18.837L18.8384 12.1659C18.8386 12.1519 18.8389 12.138 18.8389 12.124C18.8389 12.11 18.8386 12.0961 18.8384 12.0821L18.837 11.9504H17.6602L17.6617 12.084V12.0838Z" fill="#725550"/>
<path d="M5.6323 12.1633C5.63205 12.1502 5.6318 12.1369 5.6318 12.1237C5.6318 12.1105 5.63205 12.0972 5.6323 12.0841L5.63382 11.9501H4.45697L4.45558 12.0818C4.45533 12.0958 4.45508 12.1097 4.45508 12.1237C4.45508 12.1377 4.45533 12.1516 4.45558 12.1656L4.45697 12.2973H5.63382L5.6323 12.1633Z" fill="#725550"/>
<path d="M11.7217 11.416C11.7262 11.3997 11.7306 11.3833 11.7349 11.3675C11.7961 11.1458 11.8537 10.9641 11.8719 10.7732C11.8941 10.5401 11.7577 10.0109 11.671 9.70516C11.7512 9.45451 11.8473 9.41199 11.8719 9.15454C11.7561 8.7974 11.6032 7.17419 11.6032 7.17419C11.6032 7.17419 11.4847 8.71967 11.3345 9.15454C11.3591 9.41199 11.4551 9.45451 11.5352 9.70516C11.4485 10.0109 11.3121 10.5402 11.3345 10.7732C11.3527 10.9639 11.4101 11.1453 11.4712 11.3668C11.4764 11.3854 11.4816 11.4045 11.4868 11.4238C11.5332 11.4155 11.5807 11.4103 11.6296 11.4103C11.6608 11.4103 11.6914 11.4125 11.7217 11.416ZM11.4857 9.10225C11.4716 8.95464 11.6032 8.47777 11.6032 8.47777C11.6032 8.47777 11.7347 8.95464 11.7206 9.10225C11.7065 9.24986 11.6387 9.2356 11.6032 9.47777C11.5677 9.2356 11.4999 9.24986 11.4857 9.10225Z" fill="#F1C666"/>
<path d="M13.9273 10.9325C14.1739 10.8724 14.2546 10.93 14.4806 10.8206C14.6503 10.6283 16.0537 9.67033 16.8828 9.11123C17.2395 8.87074 17.49 8.70386 17.49 8.70386C17.49 8.70386 17.228 8.85005 16.8514 9.05612C15.9898 9.52747 14.5281 10.3122 14.2268 10.3784C14.024 10.5282 14.034 10.6287 13.8631 10.8208C13.5677 10.9034 13.0626 11.0574 12.879 11.1931C12.8248 11.233 12.7742 11.2768 12.7241 11.3238C12.5921 11.4477 12.4648 11.5949 12.293 11.7621C12.3197 11.8009 12.343 11.8422 12.3629 11.8854C12.6746 11.7843 12.913 11.7415 13.1325 11.6353C13.2645 11.5714 13.4678 11.3913 13.6529 11.2109C13.7548 11.1116 13.8513 11.0124 13.9272 10.9324L13.9273 10.9325ZM14.3417 10.4766C14.458 10.3907 14.9171 10.259 14.9171 10.259C14.9171 10.259 14.5821 10.6071 14.4526 10.6699C14.323 10.7326 14.3028 10.6696 14.0845 10.7623C14.2694 10.6112 14.2254 10.5625 14.3417 10.4767V10.4766Z" fill="#F1C666"/>
<path d="M11.7217 11.416C11.6914 11.4125 11.6607 11.4103 11.6295 11.4103C11.5808 11.4103 11.5332 11.4155 11.4867 11.4238C11.1069 11.4926 10.8184 11.8294 10.8184 12.2356C10.8184 12.6914 11.1815 13.0609 11.6295 13.0609C12.0775 13.0609 12.4407 12.6914 12.4407 12.2356C12.4407 12.1102 12.4124 11.9919 12.3633 11.8854C12.3433 11.8421 12.3201 11.8008 12.2933 11.7621C12.1633 11.5738 11.9581 11.4432 11.7217 11.416Z" fill="#ECA95F"/>
<path d="M11.6299 11.5132C11.2379 11.5132 10.9199 11.8366 10.9199 12.2356C10.9199 12.6346 11.2377 12.958 11.6299 12.958C12.0221 12.958 12.34 12.6346 12.34 12.2356C12.34 11.8366 12.0221 11.5132 11.6299 11.5132Z" fill="#F1C666"/>
<path d="M11.6308 11.8608C11.4226 11.8608 11.2539 12.0326 11.2539 12.2443C11.2539 12.456 11.4227 12.6278 11.6308 12.6278C11.8389 12.6278 12.0077 12.456 12.0077 12.2443C12.0077 12.0326 11.8389 11.8608 11.6308 11.8608Z" fill="#F7DBA2"/>
</g>
<defs>
<clipPath id="clip0_874_6065">
<rect width="23.2941" height="24" fill="white"/>
</clipPath>
</defs>
</svg>
