<svg width="23" height="24" viewBox="0 0 23 24" fill="none" xmlns="http://www.w3.org/2000/svg">
<path d="M21.5461 21.0014C19.7454 22.7945 16.3337 23.6714 11.6133 23.3841C5.77764 23.0292 1.91346 20.5601 1.80456 17.2048C1.69378 13.8495 6.66013 8.13016 10.0249 6.25252C10.2164 6.1455 6.14754 1.47205 7.03378 0.6534C7.4187 0.296648 9.39022 0.0487996 11.6565 0.00561384C14.5857 -0.0488377 18.0086 0.238441 19.1427 1.07211C19.9933 2.69064 14.7152 6.16991 14.7152 6.16991C14.7152 6.16991 22.2671 9.85008 23.0031 17.3757C23.0087 18.8196 22.5074 20.04 21.5442 20.9995L21.5461 21.0014Z" fill="#89493F"/>
<path d="M18.454 1.62042C18.4465 1.60916 18.4371 1.59601 18.4296 1.58475C18.4296 1.58475 18.4296 1.58287 18.4277 1.58099C18.4597 1.63732 18.4634 1.63732 18.454 1.62042Z" fill="#42210B"/>
<path d="M18.2956 1.45518C18.2956 1.45518 18.2787 1.44016 18.2693 1.43265C18.2693 1.43265 18.2655 1.43077 18.2637 1.42889C18.3125 1.47771 18.3106 1.47208 18.2937 1.45518H18.2956Z" fill="#42210B"/>
<path d="M11.1799 7.11063C8.2001 8.18276 3.1023 13.6073 3.69376 17.0114C4.28522 20.4156 7.71567 21.8877 13.0613 22.3289C18.4069 22.7701 21.4525 19.9687 21.614 17.4752C21.8712 13.4833 16.4805 5.20294 11.1818 7.11063H11.1799Z" fill="#B9634C"/>
<path d="M15.041 15.5721C15.026 15.2585 14.9096 14.9712 14.7012 14.7346C14.4083 14.4023 13.9952 14.222 13.5671 14.1394C13.5652 14.0512 13.5614 13.9629 13.5596 13.8747C13.5445 13.4653 13.5389 13.056 13.5126 12.6467C13.5107 12.6091 13.5089 12.5716 13.5051 12.534C13.5539 12.5584 13.6027 12.5829 13.6497 12.611C13.7586 12.673 13.86 12.7425 13.9595 12.8138C13.982 12.8307 14.0064 12.8495 14.029 12.8664C14.0327 12.8701 14.0384 12.8739 14.0459 12.8776C14.0459 12.8776 14.0496 12.8814 14.0515 12.8833C14.1003 12.9265 14.1491 12.9715 14.1961 13.0166C14.2843 13.1048 14.3707 13.1893 14.4458 13.2888C14.5247 13.3921 14.6899 13.3921 14.7857 13.3245C14.8908 13.2513 14.9284 13.1067 14.8664 12.9922C14.6129 12.5153 14.2374 12.1134 13.7642 11.8487C13.6666 11.7942 13.5652 11.7454 13.4619 11.7022C13.4563 11.5558 13.4525 11.4093 13.4488 11.2629C13.445 11.1314 13.3511 11 13.2084 11C13.0751 11 12.9474 11.0995 12.9456 11.2403C12.9456 11.338 12.9437 11.4356 12.9418 11.5332C12.6921 11.4769 12.4367 11.4525 12.1795 11.46C12.0969 11.4638 12.0143 11.4694 11.9316 11.4788C11.9354 11.4281 11.941 11.3755 11.9448 11.3248C11.9561 11.1934 11.8378 11.062 11.7044 11.062C11.5617 11.062 11.4547 11.1615 11.4416 11.3023C11.4322 11.3962 11.4228 11.4901 11.4134 11.5839C11.0736 11.6872 10.7544 11.8562 10.5009 12.1041C10.0296 12.5678 9.81742 13.3433 10.1911 13.9329C10.345 14.177 10.5666 14.3741 10.822 14.5074C10.9196 14.5581 11.0266 14.6126 11.1374 14.6483C11.1186 15.1421 11.1149 15.6378 11.1205 16.1335C11.1074 16.1203 11.0942 16.1053 11.083 16.0903C11.0679 16.0734 11.0548 16.0565 11.0416 16.0396C11.036 16.0264 11.0191 16.0095 11.0135 15.9983C10.9816 15.9476 10.9515 15.8931 10.9271 15.8387C10.9252 15.8387 10.9215 15.833 10.9177 15.8199C10.9158 15.8143 10.914 15.8068 10.9121 15.8011C10.9121 15.7974 10.9083 15.7936 10.9065 15.7917C10.9065 15.7917 10.9083 15.7955 10.9102 15.7974C10.9027 15.773 10.8952 15.7504 10.8896 15.726C10.8745 15.6659 10.8595 15.6059 10.8501 15.5439C10.8313 15.4049 10.6717 15.2848 10.5347 15.2848C10.3995 15.2848 10.2286 15.373 10.2005 15.5195C10.1667 15.696 10.1592 15.8593 10.2042 16.0358C10.2418 16.1823 10.3019 16.325 10.3882 16.4508C10.576 16.7268 10.8276 16.939 11.1318 17.0798C11.1355 17.0817 11.1393 17.0836 11.1449 17.0854C11.1468 17.1605 11.1505 17.2338 11.1524 17.3089C11.1543 17.3708 11.1562 17.4309 11.1618 17.491C11.1731 17.6431 11.2294 17.7464 11.3608 17.8309C11.4866 17.9135 11.635 17.8834 11.7458 17.7971C11.8903 17.6844 11.896 17.5304 11.8922 17.3633C11.8922 17.3408 11.8922 17.3164 11.8922 17.2939C12.2152 17.3389 12.5475 17.337 12.8723 17.3145C12.8742 17.4178 12.8817 17.521 12.8986 17.6224C12.9268 17.7952 13.1146 17.9041 13.276 17.8891C13.4638 17.8703 13.5671 17.7295 13.5934 17.553C13.6103 17.4403 13.6103 17.322 13.6084 17.2056C14.0684 17.0836 14.489 16.8432 14.7706 16.4395C14.9434 16.1917 15.0617 15.8725 15.0466 15.5683L15.041 15.5721ZM11.1825 13.8033C11.1825 13.8202 11.1806 13.8371 11.1787 13.854C11.1562 13.8409 11.1336 13.8258 11.1111 13.8108C11.0905 13.7977 11.0717 13.7827 11.051 13.7695C11.0473 13.7676 11.0416 13.7639 11.0341 13.7583C11.0323 13.7564 11.0285 13.7526 11.0266 13.7507C11.021 13.7451 11.0135 13.7395 11.0078 13.7357C11.0116 13.7376 11.0154 13.7395 11.0191 13.7414C10.9797 13.7038 10.9402 13.6662 10.9065 13.6231C10.9046 13.6193 10.9008 13.6174 10.8989 13.6137C10.8896 13.593 10.8708 13.5705 10.8576 13.5517C10.8426 13.5254 10.8276 13.4973 10.8144 13.471C10.8107 13.4653 10.8088 13.4578 10.8069 13.4522C10.7994 13.4259 10.7919 13.3996 10.7844 13.3733C10.7806 13.3583 10.7769 13.3414 10.775 13.3264C10.775 13.317 10.7713 13.3039 10.7713 13.2964C10.7713 13.2795 10.7713 13.2644 10.7713 13.2475C10.7713 13.2137 10.775 13.1799 10.7788 13.148C10.7788 13.1386 10.7825 13.1292 10.7844 13.1199C10.7919 13.0842 10.8032 13.0485 10.8144 13.0128C10.8238 12.9865 10.8332 12.9603 10.8445 12.9358C10.852 12.9208 10.8595 12.9058 10.8689 12.8908C10.8877 12.8589 10.9065 12.8269 10.9271 12.7969C10.9365 12.7838 10.9459 12.7706 10.9553 12.7575C10.9571 12.7537 10.9609 12.75 10.9628 12.7481C10.9647 12.7462 10.9684 12.7424 10.9703 12.7406C10.9816 12.7293 10.9928 12.7162 11.0041 12.7049C11.0323 12.6749 11.0623 12.6467 11.0923 12.6204C11.1149 12.5997 11.1412 12.581 11.1637 12.5622C11.1712 12.5566 11.1787 12.5509 11.1862 12.5472C11.2275 12.5209 11.2688 12.4965 11.312 12.4721C11.2613 12.9171 11.2125 13.3602 11.1806 13.8071L11.1825 13.8033ZM11.8809 14.0775C11.8809 13.6287 11.8847 13.1799 11.8922 12.7312C11.8941 12.5791 11.8978 12.4251 11.8997 12.273C11.9542 12.2637 12.0086 12.2543 12.0631 12.2486C12.0743 12.2486 12.0875 12.2468 12.0912 12.2468C12.1213 12.2449 12.1495 12.243 12.1795 12.2411C12.2452 12.2392 12.3109 12.2374 12.3766 12.2411C12.4349 12.243 12.4931 12.2468 12.5513 12.2524C12.5813 12.2543 12.6095 12.258 12.6376 12.2618C12.6733 12.2655 12.7878 12.2956 12.6658 12.2637C12.7503 12.2843 12.8348 12.3012 12.9174 12.3219C12.9155 12.3726 12.9136 12.4214 12.9099 12.4721C12.8892 12.8852 12.8836 13.3001 12.8742 13.7132C12.8705 13.8371 12.8686 13.9592 12.8667 14.0831C12.617 14.0831 12.3673 14.0944 12.1175 14.0887C12.0387 14.0887 11.9579 14.0831 11.8791 14.0775H11.8809ZM12.0161 16.5522C11.9992 16.5503 11.9823 16.5465 11.9654 16.5447C11.9354 16.539 11.9054 16.5334 11.8772 16.5259C11.8772 16.4921 11.8772 16.4583 11.8772 16.4245C11.8753 16.0171 11.8772 15.6096 11.8772 15.204C11.8772 15.0632 11.8772 14.9224 11.8791 14.7797C12.1344 14.7966 12.3917 14.7853 12.647 14.7797C12.7184 14.7797 12.7916 14.7778 12.863 14.7778C12.863 15.2472 12.863 15.7148 12.8648 16.1842C12.8648 16.3194 12.8648 16.4545 12.8667 16.5897C12.5832 16.5991 12.2959 16.5897 12.0161 16.5541V16.5522ZM14.3594 15.7166C14.3594 15.7166 14.3594 15.7241 14.3594 15.7298C14.3557 15.7617 14.3557 15.7486 14.3594 15.7298C14.3557 15.7429 14.3538 15.7579 14.3519 15.7598C14.3444 15.7899 14.335 15.818 14.3256 15.8462C14.3219 15.8593 14.3162 15.8725 14.3125 15.8837C14.3162 15.8725 14.305 15.9025 14.2993 15.9138C14.29 15.9307 14.2806 15.9476 14.2712 15.9645C14.2543 15.9945 14.2355 16.0227 14.2149 16.0527C14.2055 16.0659 14.1961 16.0771 14.1867 16.0903C14.1867 16.0903 14.1867 16.0903 14.1867 16.0922C14.2017 16.0696 14.1792 16.1034 14.1698 16.1128C14.1585 16.1241 14.1491 16.1353 14.1379 16.1466C14.0891 16.1973 14.0384 16.2442 13.982 16.2874C13.9764 16.2912 13.9726 16.2949 13.9689 16.2968C13.967 16.2968 13.9633 16.3006 13.9595 16.3025C13.9332 16.3194 13.9069 16.3363 13.8806 16.3513C13.813 16.3888 13.7436 16.4189 13.6741 16.4508C13.661 16.4545 13.6459 16.4602 13.6328 16.4658C13.6215 16.4696 13.6103 16.4733 13.5971 16.4771C13.5971 16.4283 13.5971 16.3794 13.5971 16.3325C13.5934 15.9232 13.5896 15.5138 13.5858 15.1045C13.5858 15.0182 13.5858 14.9337 13.5821 14.8473C13.6178 14.8567 13.6534 14.8679 13.6891 14.8792C13.7154 14.8886 13.7436 14.898 13.7699 14.9092C13.783 14.9149 13.7961 14.9205 13.8093 14.9261C13.8224 14.9318 13.8731 14.9637 13.8281 14.9337C13.8262 14.9337 13.8243 14.9318 13.8224 14.9299C13.8281 14.9337 13.8318 14.9355 13.8356 14.9374C13.8487 14.943 13.8619 14.9506 13.8731 14.9562C13.9013 14.9712 13.9295 14.9862 13.9557 15.0031C14.0064 15.0332 14.0553 15.067 14.1022 15.1045C14.1022 15.1045 14.1041 15.1045 14.106 15.1064C14.1078 15.1083 14.1116 15.112 14.1153 15.1139C14.1379 15.1346 14.1604 15.1552 14.1811 15.1777C14.1998 15.1965 14.2167 15.2172 14.2355 15.2378C14.2411 15.2453 14.2468 15.251 14.2524 15.2585C14.2768 15.3017 14.3012 15.3449 14.3238 15.3899C14.3238 15.388 14.3238 15.3843 14.3238 15.3824C14.3238 15.3862 14.3238 15.3918 14.3275 15.3974C14.3275 15.4012 14.3313 15.4049 14.3331 15.4087C14.3388 15.4181 14.3388 15.4237 14.3388 15.4256C14.3482 15.4538 14.3557 15.4838 14.3613 15.5138C14.3632 15.527 14.3651 15.5401 14.3688 15.5533C14.3688 15.5777 14.3688 15.6021 14.3688 15.6246C14.3688 15.6509 14.3651 15.6791 14.3632 15.7054C14.3632 15.7054 14.3632 15.7035 14.3651 15.7035C14.3651 15.7035 14.3651 15.7072 14.3613 15.7148L14.3594 15.7166Z" fill="#FFBD1A"/>
<path d="M10.8277 5.80941C10.8277 5.80941 7.68833 1.54342 8.45441 1.18103C9.21861 0.818646 11.4323 0.859955 11.9956 1.18103C12.5589 1.50211 13.1504 5.68737 12.634 5.80941C12.1158 5.92958 10.8296 5.80941 10.8296 5.80941H10.8277Z" fill="#B9634C"/>
<path d="M13.6855 5.44701C13.6855 5.44701 15.5763 2.51038 16.1809 2.51038C16.7855 2.51038 14.9436 5.60848 14.4554 5.68922C13.9672 5.76996 13.6855 5.44701 13.6855 5.44701Z" fill="#D3775E"/>
<path d="M10.5846 1.46645C10.5846 1.46645 9.06746 1.29934 9.00362 1.76311C8.9379 2.22877 10.8362 5.40761 11.2568 5.1654C11.6774 4.92318 11.1066 1.49461 10.5865 1.46645H10.5846Z" fill="#D3775E"/>
<path d="M10.3797 5.17851C10.3234 5.18977 8.69735 5.39256 8.77622 5.70237C8.85695 6.01218 9.37894 6.17178 9.37894 6.17178C9.37894 6.17178 8.57906 6.60176 8.99965 6.82895C9.41837 7.05615 13.3351 7.35845 14.8466 7.26269C16.3581 7.16505 16.3394 6.53416 16.0971 6.45343C15.8549 6.37269 15.5226 6.22811 15.5226 6.22811C15.5226 6.22811 16.4539 6.14549 16.2192 5.70237C15.9845 5.26113 11.6096 4.93817 10.376 5.17851H10.3797Z" fill="#5A4C5B"/>
<path d="M10.1987 6.03471C9.92647 5.76245 13.4001 5.39819 14.7145 6.17178C14.8628 6.53979 11.1695 7.0092 10.1987 6.03471Z" fill="#4C4054"/>
<path d="M5.88197 21.683H5.50644C5.07458 21.1197 4.13201 20.6972 3.03922 20.6972C1.94643 20.6972 1.00574 21.1197 0.572001 21.683H0.434934V22.1298C0.434934 22.1843 0.371094 22.2387 0.371094 22.2951C0.371094 23.2358 1.5634 23.9981 3.06551 23.9981C4.56762 23.9981 5.80311 23.2527 5.82939 22.3251L5.88197 22.3214V21.6811V21.683Z" fill="#D26A07"/>
<path d="M5.75991 21.5515C5.75991 22.4922 4.5432 23.2546 3.04109 23.2546C1.53898 23.2546 0.322266 22.4922 0.322266 21.5515C0.322266 21.499 0.326021 21.4483 0.333531 21.3976C0.457456 20.5282 1.62347 19.8485 3.04109 19.8485C4.03436 19.8485 4.90371 20.1827 5.37875 20.6803C5.62097 20.9357 5.76179 21.2342 5.76179 21.5515H5.75991Z" fill="#FEB609"/>
<path d="M3.04054 23.0049C1.67174 23.0049 0.599609 22.3514 0.599609 21.5159C0.599609 20.6803 1.67174 20.0269 3.04054 20.0269C4.40934 20.0269 5.48147 20.6803 5.48147 21.5159C5.48147 22.3514 4.40934 23.0049 3.04054 23.0049ZM3.04054 20.4006C1.91959 20.4006 0.971382 20.9113 0.971382 21.5178C0.971382 22.1242 1.91959 22.635 3.04054 22.635C4.16149 22.635 5.1097 22.1242 5.1097 21.5178C5.1097 20.9113 4.16149 20.4006 3.04054 20.4006Z" fill="#D46C00"/>
<path d="M3.64757 21.4971C3.69826 21.7299 3.49923 21.8708 3.2082 21.9083L3.23261 22.2913H2.79887L2.81765 21.9027C2.6036 21.8708 2.39894 21.7975 2.26562 21.6961L2.50409 21.4013C2.6374 21.4971 2.89276 21.5797 3.04297 21.5797C3.1162 21.5797 3.16126 21.5609 3.15938 21.5178C3.15187 21.3732 2.41208 21.4671 2.4778 21.1159C2.50409 20.9789 2.65242 20.8906 2.86835 20.8643L2.87586 20.7085H3.13122L3.14061 20.8606C3.28331 20.8719 3.42601 20.9019 3.53679 20.9432L3.42788 21.1535C3.29082 21.1047 3.09179 21.0502 2.98476 21.0502C2.93782 21.0502 2.90778 21.0596 2.90778 21.0859C2.90402 21.1986 3.56871 21.1272 3.64757 21.4952V21.4971Z" fill="#D26A07"/>
<g style="mix-blend-mode:multiply" opacity="0.61">
<path d="M5.75991 21.5515C5.75991 22.4922 4.5432 23.2545 3.04109 23.2545C1.53898 23.2545 0.322266 22.4922 0.322266 21.5515C0.322266 21.4989 0.326021 21.4483 0.333531 21.3976C0.733469 21.7224 1.3606 22.0266 2.26562 21.9759C3.77712 21.8895 4.54696 21.4483 5.37875 20.6803C5.62097 20.9357 5.76179 21.2342 5.76179 21.5515H5.75991Z" fill="#E28539"/>
</g>
<path d="M6.82007 20.1808H6.47271C6.04085 19.6175 5.09828 19.1951 4.00549 19.1951C2.9127 19.1951 1.972 19.6175 1.53827 20.1808H1.37492V20.8436C1.37492 20.8981 1.32422 20.9525 1.32422 21.0089C1.32422 21.9496 2.52215 22.7119 4.02427 22.7119C5.52638 22.7119 6.7506 21.9665 6.77689 21.0389L6.82007 21.0352V20.1808Z" fill="#D26A07"/>
<path d="M6.72671 20.2653C6.72671 21.206 5.51 21.9684 4.00789 21.9684C2.50577 21.9684 1.28906 21.206 1.28906 20.2653C1.28906 20.2128 1.29282 20.1621 1.30033 20.1114C1.42425 19.242 2.59027 18.5623 4.00789 18.5623C5.00116 18.5623 5.8705 18.8965 6.34555 19.3941C6.58776 19.6495 6.72859 19.948 6.72859 20.2653H6.72671Z" fill="#FEB609"/>
<path d="M4.00539 21.7187C2.63659 21.7187 1.56445 21.0652 1.56445 20.2297C1.56445 19.3941 2.63659 18.7407 4.00539 18.7407C5.37419 18.7407 6.44632 19.3941 6.44632 20.2297C6.44632 21.0652 5.37419 21.7187 4.00539 21.7187ZM4.00539 19.1144C2.88443 19.1144 1.93623 19.6251 1.93623 20.2316C1.93623 20.838 2.88443 21.3488 4.00539 21.3488C5.12634 21.3488 6.07454 20.838 6.07454 20.2316C6.07454 19.6251 5.12634 19.1144 4.00539 19.1144Z" fill="#D46C00"/>
<path d="M4.61241 20.209C4.66311 20.4437 4.46408 20.5827 4.17304 20.6202L4.19745 21.0033H3.76372L3.7825 20.6146C3.56844 20.5827 3.36378 20.5094 3.23047 20.408L3.46893 20.1133C3.60224 20.209 3.8576 20.2916 4.00781 20.2916C4.08104 20.2916 4.1261 20.2729 4.12423 20.2297C4.11672 20.0851 3.37692 20.179 3.44264 19.8279C3.46893 19.6908 3.61726 19.6025 3.83319 19.5763L3.8407 19.4204H4.09606L4.10545 19.5725C4.24815 19.5838 4.39085 19.6138 4.50163 19.6551L4.39273 19.8654C4.25566 19.8166 4.05663 19.7621 3.94961 19.7621C3.90266 19.7621 3.87262 19.7715 3.87262 19.7978C3.86887 19.9105 4.53355 19.8391 4.61241 20.2071V20.209Z" fill="#D26A07"/>
<g style="mix-blend-mode:multiply" opacity="0.61">
<path d="M6.72671 20.2653C6.72671 21.206 5.51 21.9683 4.00789 21.9683C2.50577 21.9683 1.28906 21.206 1.28906 20.2653C1.28906 20.2128 1.29282 20.1621 1.30033 20.1114C1.70027 20.4362 2.3274 20.7404 3.23242 20.6897C4.74392 20.6033 5.51375 20.1621 6.34555 19.3941C6.58776 19.6495 6.72859 19.948 6.72859 20.2653H6.72671Z" fill="#E28539"/>
</g>
<path d="M5.50766 19.242H5.34806C4.9162 18.6788 3.97362 18.2563 2.88084 18.2563C1.78805 18.2563 0.847354 18.6788 0.413619 19.242H0.0625V19.7152C0.0625 19.7697 0.105686 19.8241 0.105686 19.8804C0.105686 20.8211 1.35056 21.5835 2.85267 21.5835C4.35479 21.5835 5.50953 20.838 5.53582 19.9105L5.50766 19.9067V19.2402V19.242Z" fill="#D26A07"/>
<path d="M5.60163 19.1387C5.60163 20.0794 4.38492 20.8418 2.88281 20.8418C1.3807 20.8418 0.162109 20.0794 0.162109 19.1387C0.162109 19.0862 0.165865 19.0355 0.173375 18.9848C0.297299 18.1154 1.46331 17.4357 2.88093 17.4357C3.8742 17.4357 4.74355 17.7699 5.21859 18.2675C5.46081 18.5229 5.60163 18.8214 5.60163 19.1387Z" fill="#FEB609"/>
<path d="M2.88039 20.5921C1.51159 20.5921 0.439453 19.9387 0.439453 19.1031C0.439453 18.2676 1.51159 17.6141 2.88039 17.6141C4.24919 17.6141 5.32132 18.2676 5.32132 19.1031C5.32132 19.9387 4.24919 20.5921 2.88039 20.5921ZM2.88039 17.9878C1.75943 17.9878 0.811226 18.4985 0.811226 19.105C0.811226 19.7115 1.75943 20.2222 2.88039 20.2222C4.00134 20.2222 4.94954 19.7115 4.94954 19.105C4.94954 18.4985 4.00134 17.9878 2.88039 17.9878Z" fill="#D46C00"/>
<path d="M3.48741 19.0824C3.53811 19.3153 3.33908 19.4561 3.04804 19.4936L3.07245 19.8767H2.63872L2.65749 19.488C2.44344 19.4561 2.23878 19.3829 2.10547 19.2815L2.34393 18.9867C2.47724 19.0824 2.7326 19.165 2.88281 19.165C2.95604 19.165 3.0011 19.1463 2.99923 19.1031C2.99172 18.9585 2.25192 19.0524 2.31764 18.7013C2.34393 18.5642 2.49226 18.476 2.70819 18.4497L2.7157 18.2938H2.97106L2.98045 18.4459C3.12315 18.4572 3.26585 18.4872 3.37663 18.5285L3.26773 18.7388C3.13066 18.69 2.93163 18.6356 2.8246 18.6356C2.77766 18.6356 2.74762 18.6449 2.74762 18.6712C2.74387 18.7839 3.40855 18.7125 3.48741 19.0806V19.0824Z" fill="#D26A07"/>
<g style="mix-blend-mode:multiply" opacity="0.61">
<path d="M5.60163 19.1387C5.60163 20.0794 4.38492 20.8418 2.88281 20.8418C1.3807 20.8418 0.162109 20.0794 0.162109 19.1387C0.162109 19.0862 0.165865 19.0355 0.173375 18.9848C0.573313 19.3096 1.20044 19.6138 2.10547 19.5631C3.61697 19.4767 4.3868 19.0355 5.21859 18.2675C5.46081 18.5229 5.60163 18.8214 5.60163 19.1387Z" fill="#E28539"/>
</g>
<path d="M6.07082 18.1155H5.669C5.23715 17.5522 4.29457 17.1297 3.20178 17.1297C2.109 17.1297 1.1683 17.5522 0.734564 18.1155H0.623783V18.5886C0.623783 18.6431 0.544922 18.6975 0.544922 18.7539C0.544922 19.6946 1.72971 20.4569 3.23183 20.4569C4.73394 20.4569 5.97881 19.7115 6.0051 18.7839L6.06706 18.7801V18.1136L6.07082 18.1155Z" fill="#D26A07"/>
<path d="M5.92202 18.0122C5.92202 18.9529 4.70531 19.7152 3.2032 19.7152C1.70109 19.7152 0.484375 18.9529 0.484375 18.0122C0.484375 17.9596 0.48813 17.9089 0.495641 17.8582C0.619565 16.9888 1.78558 16.3091 3.2032 16.3091C4.19647 16.3091 5.06582 16.6434 5.54086 17.1409C5.78308 17.3963 5.9239 17.6948 5.9239 18.0122H5.92202Z" fill="#FEB609"/>
<path d="M3.20265 19.4654C1.83385 19.4654 0.761719 18.812 0.761719 17.9765C0.761719 17.1409 1.83385 16.4875 3.20265 16.4875C4.57145 16.4875 5.64358 17.1409 5.64358 17.9765C5.64358 18.812 4.57145 19.4654 3.20265 19.4654ZM3.20265 16.8611C2.0817 16.8611 1.13349 17.3719 1.13349 17.9783C1.13349 18.5848 2.0817 19.0955 3.20265 19.0955C4.3236 19.0955 5.27181 18.5848 5.27181 17.9783C5.27181 17.3719 4.3236 16.8611 3.20265 16.8611Z" fill="#D46C00"/>
<path d="M3.80772 17.9558C3.85842 18.1887 3.65939 18.3295 3.36836 18.367L3.39277 18.7501H2.95903L2.97781 18.3614C2.76376 18.3295 2.55909 18.2563 2.42578 18.1549L2.66424 17.8601C2.79755 17.9558 3.05291 18.0385 3.20312 18.0385C3.27635 18.0385 3.32142 18.0197 3.31954 17.9765C3.31203 17.8319 2.57224 17.9258 2.63795 17.5747C2.66424 17.4376 2.81257 17.3494 3.0285 17.3231L3.03601 17.1672H3.29137L3.30076 17.3193C3.44346 17.3306 3.58616 17.3606 3.69694 17.4019L3.58804 17.6122C3.45097 17.5634 3.25194 17.509 3.14492 17.509C3.09798 17.509 3.06793 17.5184 3.06793 17.5446C3.06418 17.6573 3.72886 17.586 3.80772 17.954V17.9558Z" fill="#D26A07"/>
<g style="mix-blend-mode:multiply" opacity="0.61">
<path d="M5.92202 18.0122C5.92202 18.9529 4.70531 19.7152 3.2032 19.7152C1.70109 19.7152 0.484375 18.9529 0.484375 18.0122C0.484375 17.9596 0.48813 17.9089 0.495641 17.8582C0.895578 18.183 1.52271 18.4872 2.42773 18.4365C3.93923 18.3501 4.70907 17.9089 5.54086 17.1409C5.78308 17.3963 5.9239 17.6948 5.9239 18.0122H5.92202Z" fill="#E28539"/>
</g>
<path d="M5.50615 16.4256H5.18507C4.75321 15.8623 3.81064 15.4398 2.71785 15.4398C1.62506 15.4398 0.684367 15.8623 0.250632 16.4256H0.0609903V16.9795C0.0609903 17.0339 0.0234375 17.0884 0.0234375 17.1447C0.0234375 18.0854 1.22888 18.8477 2.73099 18.8477C4.23311 18.8477 5.44794 18.1023 5.47423 17.1748L5.50615 17.171V16.4237V16.4256Z" fill="#D26A07"/>
<path d="M5.43952 16.4011C5.43952 17.3418 4.22281 18.1042 2.7207 18.1042C1.21859 18.1042 0 17.3418 0 16.4011C0 16.3486 0.00375528 16.2979 0.0112658 16.2472C0.13519 15.3778 1.3012 14.6981 2.71882 14.6981C3.71209 14.6981 4.58144 15.0323 5.05649 15.5299C5.2987 15.7853 5.43952 16.0838 5.43952 16.4011Z" fill="#FEB609"/>
<path d="M2.71828 17.8545C1.34948 17.8545 0.277344 17.201 0.277344 16.3655C0.277344 15.5299 1.34948 14.8765 2.71828 14.8765C4.08708 14.8765 5.15921 15.5299 5.15921 16.3655C5.15921 17.201 4.08708 17.8545 2.71828 17.8545ZM2.71828 15.2502C1.59732 15.2502 0.649117 15.7609 0.649117 16.3674C0.649117 16.9738 1.59732 17.4846 2.71828 17.4846C3.83923 17.4846 4.78744 16.9738 4.78744 16.3674C4.78744 15.7609 3.83923 15.2502 2.71828 15.2502Z" fill="#D46C00"/>
<path d="M3.3253 16.3467C3.376 16.5814 3.17697 16.7204 2.88593 16.7579L2.91034 17.141H2.47661L2.49539 16.7523C2.28133 16.7204 2.07667 16.6471 1.94336 16.5457L2.18182 16.251C2.31513 16.3467 2.57049 16.4293 2.7207 16.4293C2.79393 16.4293 2.83899 16.4106 2.83712 16.3674C2.82961 16.2228 2.08982 16.3167 2.15553 15.9656C2.18182 15.8285 2.33015 15.7402 2.54608 15.7139L2.55359 15.5581H2.80895L2.81834 15.7102C2.96104 15.7215 3.10374 15.7515 3.21452 15.7928L3.10562 16.0031C2.96855 15.9543 2.76952 15.8998 2.6625 15.8998C2.61555 15.8998 2.58551 15.9092 2.58551 15.9355C2.58176 16.0482 3.24644 15.9768 3.3253 16.3448V16.3467Z" fill="#D26A07"/>
<g style="mix-blend-mode:multiply" opacity="0.61">
<path d="M5.43952 16.4011C5.43952 17.3418 4.22281 18.1042 2.7207 18.1042C1.21859 18.1042 0 17.3418 0 16.4011C0 16.3486 0.00375528 16.2979 0.0112658 16.2472C0.411203 16.572 1.03834 16.8762 1.94336 16.8255C3.45486 16.7391 4.22469 16.2979 5.05649 15.5299C5.2987 15.7853 5.43952 16.0838 5.43952 16.4011Z" fill="#E28539"/>
</g>
</svg>
